# xmcd
#
# Track frame offsets: 
#        150
#        28565
#        51408
#        79641
#        100600
#        117039
#        138141
#        164241
#        177953
#        202322
#        236616
#        257363
#        280098
#        311572
#        327307
#
# Disc length: 4606 seconds
#
# Revision: 1
# Processed by: cddbd v1.5.2PL0 Copyright (c) Steve Scherf et al.
# Submitted via: ExactAudioCopy v0.99pb4
#
DISCID=cd11fc0f
DTITLE=Various Artist - Blues Time vol2
DYEAR=2008
DGENRE=Blues
TTITLE0=Willie Edwards - Bottom's Falling Out
TTITLE1=Bobby "Blue" Bland - Let Love Have It's Way
TTITLE2=Cafe Blue - A Good Night For The Blues
TTITLE3=Tyrone Davis - I Can't Help Myself
TTITLE4=Z.Z. Hill - I'll Be Your Witness
TTITLE5=Zora Young and Rawenswood Connection - The Thrill Is Gone
TTITLE6=Roomful Of Blues - Backlash
TTITLE7=Randy McAllister - Bullets For Breakfast
TTITLE8=Johnny Winter - You Keep Sayin' That You're Leavin'
TTITLE9=The Robert Charles Blues Band - Every Mother's Son
TTITLE10=Linwood Taylor Band - Psychic
TTITLE11=Omar and The Howlers - Life Without You
TTITLE12=Todd Sharpville, Earl Green, Mick Taylor and Snowy White - Dog 
TTITLE12=House
TTITLE13=Mick Moody and Robert Hart - My Lady Friend
TTITLE14=Gregor Hilden Band and Johnny Rogers - I Wanna Get Into You
EXTD=
EXTT0=
EXTT1=
EXTT2=
EXTT3=
EXTT4=
EXTT5=
EXTT6=
EXTT7=
EXTT8=
EXTT9=
EXTT10=
EXTT11=
EXTT12=
EXTT13=
EXTT14=
PLAYORDER=
